<svg xmlns="http://www.w3.org/2000/svg" viewBox="0 0 500 500" width="500" height="500">
  <g transform="matrix(24.293011, 0, 0, 24.139114, 6.732956, 8.608902)" style="">
    <g xmlns="http://www.w3.org/2000/svg" fill="rgb(0,0,0)">
      <path d="m15 0h-10c-2.8 0-5 2.2-5 5v10c0 2.8 2.2 5 5 5h10c2.8 0 5-2.2 5-5v-10c0-2.8-2.2-5-5-5zm3 15c0 1.7-1.3 3-3 3h-10c-1.7 0-3-1.3-3-3v-10c0-1.7 1.3-3 3-3h10c1.7 0 3 1.3 3 3z" data-original="#000000" class="" style="fill: rgb(254, 193, 7);"/>
      <path d="m10 5c-2.8 0-5 2.2-5 5s2.2 5 5 5 5-2.2 5-5-2.2-5-5-5zm0 8c-1.7 0-3-1.3-3-3s1.3-3 3-3 3 1.3 3 3-1.3 3-3 3z" data-original="#000000" class="" style="fill: rgb(254, 193, 7);"/>
      <circle cx="15" cy="5" r="1" data-original="#000000" class="" style="fill: rgb(254, 193, 7);"/>
    </g>
  </g>
</svg>